<svg xmlns="http://www.w3.org/2000/svg" viewBox="0 0 104 102"><defs><style>.cls-1{fill:#f4f4f4;}</style></defs><g id="Layer_2" data-name="Layer 2"><g id="Layer_1-2" data-name="Layer 1"><path class="cls-1" d="M104,102V59.73H84.11a57.16,57.16,0,0,1,2.07-15.94,53.87,53.87,0,0,1,6.13-13.61A32,32,0,0,1,104,19.38V0A67.34,67.34,0,0,0,80.14,16.81,69.63,69.63,0,0,0,66.46,39.63Q62,52,62,75.74V102Zm-62,0V59.73H22.11a57.16,57.16,0,0,1,2.07-15.94,53.87,53.87,0,0,1,6.13-13.61A32,32,0,0,1,42,19.38V0A68.09,68.09,0,0,0,4.45,39.63Q0,52,0,75.74V102Z"/></g></g></svg>