<svg xmlns="http://www.w3.org/2000/svg" viewBox="0 0 698.49 166.6"><defs><style>.cls-1{fill:#fac054;}.cls-2{fill:#f8f8ff;}</style></defs><g id="Layer_2" data-name="Layer 2"><g id="Layer_1-2" data-name="Layer 1"><path class="cls-1" d="M114.77,134.24c-6,4.79-18,12-33,12-15.21,0-30.42-8.86-31.13-38.29H28.21c1,39.85,22,58.66,52.1,58.66,19.48,0,35.06-8.09,43.75-15.88ZM50.65,58.66V23.37h63.52V2.69H0V23.37H28.17V58.66Z"/><path class="cls-1" d="M381.76,107.94V164.8h22.47V107.94ZM335.61,0c-24.87,0-45.84,12.58-57.53,36C266.39,12.58,245.42,0,220.55,0c-32.26,0-58.79,21-66.41,58.66H177c6.12-25.37,24-38.29,43.6-38.29,20.34,0,38.14,12.92,44.21,38.29h26.91c6-25.37,23.6-38.29,43.94-38.29,19.62,0,37.67,12.92,43.87,38.29H402C394.4,21,367.87,0,335.61,0ZM267,164.8h22.48V107.94H267Zm-115.06,0H174.7V107.94H151.93Z"/><path class="cls-1" d="M676,107.94V164.8h22.47V107.94ZM629.87,0C605,0,584,12.58,572.34,36,560.65,12.58,539.68,0,514.8,0,482.55,0,456,21,448.39,58.66h22.82c6.12-25.37,24-38.29,43.59-38.29,20.34,0,38.15,12.92,44.22,38.29h26.9c6-25.37,23.61-38.29,44-38.29,19.62,0,37.67,12.92,43.87,38.29h22.54C688.66,21,662.13,0,629.87,0ZM561.25,164.8h22.47V107.94H561.25Zm-115.07,0H469V107.94H446.18Z"/><path class="cls-2" d="M174.64,75.62h8.53c2.94,0,4.18,1.65,4.18,3.77a3.17,3.17,0,0,1-2.59,3.22v0a3.53,3.53,0,0,1,3.17,3.67c0,3.13-2.64,4.29-5,4.29h-8.34Zm1.56,6.5h6.15c2.1,0,3.44-.67,3.44-2.66,0-1.83-1.22-2.42-2.92-2.42H176.2Zm0,7.06h6.53c2,0,3.52-.8,3.52-2.86s-1.34-2.77-3.15-2.77h-6.9Z"/><path class="cls-2" d="M207.17,75.62h1.55v15h-1.55Z"/><path class="cls-2" d="M228.47,75.62h1.86l10.48,12.8h0V75.62h1.56v15H240.6L230.06,77.8h0V90.61h-1.55Z"/><path class="cls-2" d="M266.43,77h-5.88V75.62h13.31V77H268V90.61h-1.56Z"/><path class="cls-2" d="M301.33,86.05h-7.89l-2,4.56h-1.68l6.8-15h1.81l6.8,15h-1.8Zm-3.92-8.88-3.34,7.45h6.63Z"/><path class="cls-2" d="M345.83,75.62h8.53c2.94,0,4.18,1.65,4.18,3.77A3.17,3.17,0,0,1,356,82.61v0a3.53,3.53,0,0,1,3.17,3.67c0,3.13-2.64,4.29-4.95,4.29h-8.34Zm1.56,6.5h6.15c2.1,0,3.44-.67,3.44-2.66,0-1.83-1.22-2.42-2.92-2.42h-6.67Zm0,7.06h6.53c2,0,3.52-.8,3.52-2.86s-1.34-2.77-3.14-2.77h-6.91Z"/><path class="cls-2" d="M391.67,84.81c0,2.73-.75,6.17-6.69,6.17s-6.7-3.44-6.7-6.17V75.62h1.55v9.19c0,3.93,2.54,4.75,5.15,4.75s5.14-.82,5.14-4.75V75.62h1.55Z"/><path class="cls-2" d="M411.33,75.62h1.56V89.18h9.51v1.43H411.33Z"/><path class="cls-2" d="M450.68,86.05h-7.89l-2,4.56h-1.68l6.81-15h1.8l6.8,15h-1.8Zm-3.92-8.88-3.34,7.45h6.63Z"/><path class="cls-2" d="M488.17,75.62h2.2v15h-1.55v-13h0l-6.62,13h-1.42l-6.6-13h0v13h-1.55v-15h2.26l6.68,13Z"/><path class="cls-2" d="M520.05,86.05h-7.9l-2,4.56h-1.68l6.8-15H517l6.81,15H522Zm-3.93-8.88-3.34,7.45h6.64Z"/></g></g></svg>